<mxfile host="app.diagrams.net" modified="2020-09-03T08:00:31.665Z" agent="5.0 (Windows NT 10.0; Win64; x64) AppleWebKit/537.36 (KHTML, like Gecko) Chrome/85.0.4183.83 Safari/537.36" etag="SErmKd8OeLPyNZactQaN" version="13.6.6" type="github">
  <diagram id="ucS65JXZBL-Uhp10Tssl" name="Page-1">
    <mxGraphModel dx="782" dy="437" grid="1" gridSize="10" guides="1" tooltips="1" connect="1" arrows="1" fold="1" page="1" pageScale="1" pageWidth="827" pageHeight="1169" math="0" shadow="0">
      <root>
        <mxCell id="0" />
        <mxCell id="1" parent="0" />
        <mxCell id="nuhQe_qQtxb4Hk7tOlp7-21" style="edgeStyle=orthogonalEdgeStyle;rounded=0;orthogonalLoop=1;jettySize=auto;html=1;exitX=0.5;exitY=1;exitDx=0;exitDy=0;entryX=0.5;entryY=0;entryDx=0;entryDy=0;" edge="1" parent="1" source="nuhQe_qQtxb4Hk7tOlp7-1" target="nuhQe_qQtxb4Hk7tOlp7-2">
          <mxGeometry relative="1" as="geometry" />
        </mxCell>
        <mxCell id="nuhQe_qQtxb4Hk7tOlp7-1" value="Start app" style="rounded=1;whiteSpace=wrap;html=1;fillColor=#f8cecc;strokeColor=#b85450;" vertex="1" parent="1">
          <mxGeometry x="280" y="40" width="80" height="40" as="geometry" />
        </mxCell>
        <mxCell id="nuhQe_qQtxb4Hk7tOlp7-11" style="edgeStyle=orthogonalEdgeStyle;rounded=0;orthogonalLoop=1;jettySize=auto;html=1;exitX=0.5;exitY=1;exitDx=0;exitDy=0;" edge="1" parent="1" source="nuhQe_qQtxb4Hk7tOlp7-2">
          <mxGeometry relative="1" as="geometry">
            <mxPoint x="320" y="210" as="targetPoint" />
          </mxGeometry>
        </mxCell>
        <mxCell id="nuhQe_qQtxb4Hk7tOlp7-2" value="Execute main()" style="rounded=0;whiteSpace=wrap;html=1;fillColor=#d5e8d4;strokeColor=#82b366;" vertex="1" parent="1">
          <mxGeometry x="260" y="120" width="120" height="50" as="geometry" />
        </mxCell>
        <mxCell id="nuhQe_qQtxb4Hk7tOlp7-3" value="Start app" style="rounded=1;whiteSpace=wrap;html=1;fillColor=#f8cecc;strokeColor=#b85450;" vertex="1" parent="1">
          <mxGeometry x="280" y="430" width="80" height="40" as="geometry" />
        </mxCell>
        <mxCell id="nuhQe_qQtxb4Hk7tOlp7-9" style="edgeStyle=orthogonalEdgeStyle;rounded=0;orthogonalLoop=1;jettySize=auto;html=1;exitX=1;exitY=0.5;exitDx=0;exitDy=0;" edge="1" parent="1" source="nuhQe_qQtxb4Hk7tOlp7-4" target="nuhQe_qQtxb4Hk7tOlp7-7">
          <mxGeometry relative="1" as="geometry" />
        </mxCell>
        <mxCell id="nuhQe_qQtxb4Hk7tOlp7-14" style="edgeStyle=orthogonalEdgeStyle;rounded=0;orthogonalLoop=1;jettySize=auto;html=1;exitX=0.5;exitY=1;exitDx=0;exitDy=0;" edge="1" parent="1" source="nuhQe_qQtxb4Hk7tOlp7-4" target="nuhQe_qQtxb4Hk7tOlp7-5">
          <mxGeometry relative="1" as="geometry" />
        </mxCell>
        <mxCell id="nuhQe_qQtxb4Hk7tOlp7-4" value="Microtask queue empty?" style="rhombus;whiteSpace=wrap;html=1;fillColor=#fff2cc;strokeColor=#d6b656;" vertex="1" parent="1">
          <mxGeometry x="235" y="210" width="170" height="70" as="geometry" />
        </mxCell>
        <mxCell id="nuhQe_qQtxb4Hk7tOlp7-13" style="edgeStyle=orthogonalEdgeStyle;rounded=0;orthogonalLoop=1;jettySize=auto;html=1;exitX=1;exitY=0.5;exitDx=0;exitDy=0;entryX=0;entryY=0.5;entryDx=0;entryDy=0;" edge="1" parent="1" source="nuhQe_qQtxb4Hk7tOlp7-5" target="nuhQe_qQtxb4Hk7tOlp7-8">
          <mxGeometry relative="1" as="geometry" />
        </mxCell>
        <mxCell id="nuhQe_qQtxb4Hk7tOlp7-15" style="edgeStyle=orthogonalEdgeStyle;rounded=0;orthogonalLoop=1;jettySize=auto;html=1;exitX=0.5;exitY=1;exitDx=0;exitDy=0;entryX=0.5;entryY=0;entryDx=0;entryDy=0;" edge="1" parent="1" source="nuhQe_qQtxb4Hk7tOlp7-5" target="nuhQe_qQtxb4Hk7tOlp7-3">
          <mxGeometry relative="1" as="geometry" />
        </mxCell>
        <mxCell id="nuhQe_qQtxb4Hk7tOlp7-5" value="Event queue empty?" style="rhombus;whiteSpace=wrap;html=1;fillColor=#fff2cc;strokeColor=#d6b656;" vertex="1" parent="1">
          <mxGeometry x="235" y="320" width="170" height="70" as="geometry" />
        </mxCell>
        <mxCell id="nuhQe_qQtxb4Hk7tOlp7-10" style="edgeStyle=orthogonalEdgeStyle;rounded=0;orthogonalLoop=1;jettySize=auto;html=1;exitX=1;exitY=0.5;exitDx=0;exitDy=0;entryX=0.5;entryY=0;entryDx=0;entryDy=0;" edge="1" parent="1" source="nuhQe_qQtxb4Hk7tOlp7-7" target="nuhQe_qQtxb4Hk7tOlp7-4">
          <mxGeometry relative="1" as="geometry">
            <Array as="points">
              <mxPoint x="610" y="245" />
              <mxPoint x="610" y="190" />
              <mxPoint x="320" y="190" />
            </Array>
          </mxGeometry>
        </mxCell>
        <mxCell id="nuhQe_qQtxb4Hk7tOlp7-7" value="Run next microtask" style="rounded=0;whiteSpace=wrap;html=1;fillColor=#d5e8d4;strokeColor=#82b366;" vertex="1" parent="1">
          <mxGeometry x="470" y="220" width="120" height="50" as="geometry" />
        </mxCell>
        <mxCell id="nuhQe_qQtxb4Hk7tOlp7-12" style="edgeStyle=orthogonalEdgeStyle;rounded=0;orthogonalLoop=1;jettySize=auto;html=1;exitX=1;exitY=0.5;exitDx=0;exitDy=0;entryX=0.5;entryY=0;entryDx=0;entryDy=0;" edge="1" parent="1" source="nuhQe_qQtxb4Hk7tOlp7-8" target="nuhQe_qQtxb4Hk7tOlp7-4">
          <mxGeometry relative="1" as="geometry" />
        </mxCell>
        <mxCell id="nuhQe_qQtxb4Hk7tOlp7-8" value="handle next event" style="rounded=0;whiteSpace=wrap;html=1;fillColor=#d5e8d4;strokeColor=#82b366;" vertex="1" parent="1">
          <mxGeometry x="470" y="330" width="120" height="50" as="geometry" />
        </mxCell>
        <mxCell id="nuhQe_qQtxb4Hk7tOlp7-16" value="No" style="text;html=1;strokeColor=none;fillColor=none;align=center;verticalAlign=middle;whiteSpace=wrap;rounded=0;" vertex="1" parent="1">
          <mxGeometry x="414" y="220" width="40" height="20" as="geometry" />
        </mxCell>
        <mxCell id="nuhQe_qQtxb4Hk7tOlp7-17" value="No" style="text;html=1;strokeColor=none;fillColor=none;align=center;verticalAlign=middle;whiteSpace=wrap;rounded=0;" vertex="1" parent="1">
          <mxGeometry x="414" y="330" width="40" height="20" as="geometry" />
        </mxCell>
        <mxCell id="nuhQe_qQtxb4Hk7tOlp7-18" value="Yes" style="text;html=1;strokeColor=none;fillColor=none;align=center;verticalAlign=middle;whiteSpace=wrap;rounded=0;" vertex="1" parent="1">
          <mxGeometry x="320" y="290" width="40" height="20" as="geometry" />
        </mxCell>
        <mxCell id="nuhQe_qQtxb4Hk7tOlp7-20" value="Yes" style="text;html=1;strokeColor=none;fillColor=none;align=center;verticalAlign=middle;whiteSpace=wrap;rounded=0;" vertex="1" parent="1">
          <mxGeometry x="320" y="400" width="40" height="20" as="geometry" />
        </mxCell>
      </root>
    </mxGraphModel>
  </diagram>
</mxfile>
